<?xml version="1.0" encoding="UTF-8" standalone="no"?>
<svg width="104px" height="106px" viewBox="0 0 104 106" version="1.1" xmlns="http://www.w3.org/2000/svg" xmlns:xlink="http://www.w3.org/1999/xlink" xmlns:sketch="http://www.bohemiancoding.com/sketch/ns">
    <!-- Generator: Sketch 3.0 (7573) - http://www.bohemiancoding.com/sketch -->
    <title>logo</title>
    <description>Created with Sketch.</description>
    <defs></defs>
    <g id="Page-1" stroke="none" stroke-width="1" fill="none" fill-rule="evenodd" sketch:type="MSPage">
        <g id="BACK" sketch:type="MSLayerGroup" transform="translate(0.000000, 3.000000)" fill-opacity="0.6" fill="#FFFFFF">
            <path d="M0,75 L0,25 L50,50 L0,75 Z" id="Triangle-1" sketch:type="MSShapeGroup"></path>
            <path d="M0,50 L0,0 L50,25 L0,50 Z" id="Triangle-6" sketch:type="MSShapeGroup" transform="translate(25.000000, 25.000000) rotate(-180.000000) translate(-25.000000, -25.000000) "></path>
        </g>
        <g id="LEFT" sketch:type="MSLayerGroup" transform="translate(0.000000, 28.000000)" fill-opacity="0.6" fill="#FFFFFF">
            <path d="M0,50 L0,0 L50,25 L0,50 Z" id="Triangle-3" sketch:type="MSShapeGroup"></path>
            <path d="M0,75 L0,25 L50,50 L0,75 Z" id="Triangle-5" sketch:type="MSShapeGroup" transform="translate(25.000000, 50.000000) rotate(-180.000000) translate(-25.000000, -50.000000) "></path>
        </g>
        <g id="RIGHT" sketch:type="MSLayerGroup" transform="translate(54.000000, 3.000000)" fill-opacity="0.6" fill="#FFFFFF">
            <path d="M0,50 L0,0 L50,25 L0,50 Z" id="Triangle-3" sketch:type="MSShapeGroup"></path>
            <path d="M0,75 L0,25 L50,50 L0,75 Z" id="Triangle-5" sketch:type="MSShapeGroup" transform="translate(25.000000, 50.000000) rotate(-180.000000) translate(-25.000000, -50.000000) "></path>
        </g>
        <g id="FRONT" sketch:type="MSLayerGroup" transform="translate(54.000000, 28.000000)" fill-opacity="0.6" fill="#FFFFFF">
            <path d="M0,75 L0,25 L50,50 L0,75 Z" id="Triangle-1" sketch:type="MSShapeGroup"></path>
            <path d="M0,50 L0,0 L50,25 L0,50 Z" id="Triangle-6" sketch:type="MSShapeGroup" transform="translate(25.000000, 25.000000) rotate(-180.000000) translate(-25.000000, -25.000000) "></path>
        </g>
        <g id="BOTTOM" sketch:type="MSLayerGroup" transform="translate(2.000000, 56.000000)" fill-opacity="0.6" fill="#FFFFFF">
            <path d="M50,50 L50,0 L100,25 L50,50 Z" id="Triangle-4" sketch:type="MSShapeGroup"></path>
            <path d="M0,50 L0,0 L50,25 L0,50 Z" id="Triangle-2" sketch:type="MSShapeGroup" transform="translate(25.000000, 25.000000) rotate(-180.000000) translate(-25.000000, -25.000000) "></path>
        </g>
        <g id="TOP" sketch:type="MSLayerGroup" transform="translate(2.000000, 0.000000)" fill="#FFFFFF">
            <path d="M50,50 L50,0 L100,25 L50,50 Z" id="Triangle-1" sketch:type="MSShapeGroup"></path>
            <path d="M0,50 L0,0 L50,25 L0,50 Z" id="Triangle-2" sketch:type="MSShapeGroup" transform="translate(25.000000, 25.000000) rotate(-180.000000) translate(-25.000000, -25.000000) "></path>
        </g>
    </g>
</svg>