<?xml version="1.0" encoding="utf-8"?>
<!-- Generator: Adobe Illustrator 15.1.0, SVG Export Plug-In . SVG Version: 6.00 Build 0)  -->
<!DOCTYPE svg PUBLIC "-//W3C//DTD SVG 1.1//EN" "http://www.w3.org/Graphics/SVG/1.1/DTD/svg11.dtd">
<svg version="1.1" id="Layer_1" xmlns="http://www.w3.org/2000/svg" xmlns:xlink="http://www.w3.org/1999/xlink" x="0px" y="0px"
	 width="473.478px" height="478.696px" viewBox="0 0 473.478 478.696" enable-background="new 0 0 473.478 478.696"
	 xml:space="preserve">
<g>
	<path fill="#FFFFFF" stroke="#FFFFFF" stroke-miterlimit="10" d="M219.579,354.11c-0.719-0.53-1.905-0.8-3.527-0.8h-5.074v6.655
		l1.914,0.007c1.744,0.008,2.719,0.01,2.926,0.01c1.76,0,3.054-0.297,3.743-0.858c0.646-0.527,0.96-1.415,0.96-2.712
		C220.521,355.332,220.212,354.579,219.579,354.11z"/>
	<path fill="#FFFFFF" stroke="#FFFFFF" stroke-miterlimit="10" d="M153.423,354.063c-0.587-0.325-1.816-0.714-4.329-0.714h-2.457
		v5.93h3.531c3.771,0,4.254-1.605,4.254-3.004C154.423,354.791,153.853,354.302,153.423,354.063z"/>
	<path fill="#FFFFFF" stroke="#FFFFFF" stroke-miterlimit="10" d="M155.321,368.482c0-1.264-0.357-2.126-1.093-2.635
		c-0.84-0.582-2.232-0.877-4.138-0.877h-3.453v7.277h3.59C154.742,372.248,155.321,370.235,155.321,368.482z"/>
	<path fill="#FFFFFF" stroke="#FFFFFF" stroke-miterlimit="10" d="M0,0v478.696h473.478V0H0z M191.8,148.403
		c9.455,0,17.121,7.666,17.121,17.121s-7.666,17.121-17.121,17.121c-9.456,0-17.123-7.666-17.123-17.121
		S182.344,148.403,191.8,148.403z M106.096,339.25c2.504,0,4.541,2.037,4.541,4.541c0,2.503-2.037,4.539-4.541,4.539
		s-4.541-2.036-4.541-4.539C101.555,341.287,103.592,339.25,106.096,339.25z M127.427,366.822c0,3.645-1.104,6.534-3.283,8.589
		c-2.161,2.04-5.29,3.075-9.299,3.075c-4,0-7.105-1.037-9.229-3.083c-2.134-2.053-3.216-4.953-3.216-8.62v-14.32h7.312v13.871
		c0,2.119,0.405,3.65,1.203,4.552c0.768,0.865,2.122,1.304,4.027,1.304c1.867,0,3.206-0.442,3.979-1.313
		c0.805-0.907,1.213-2.441,1.213-4.562v-13.852h7.293V366.822z M123.679,348.33c-2.504,0-4.541-2.036-4.541-4.539
		c0-2.504,2.037-4.541,4.541-4.541s4.541,2.037,4.541,4.541C128.22,346.294,126.183,348.33,123.679,348.33z M159.467,375.75
		c-2.073,1.543-4.939,2.326-8.517,2.326h-11.605v-30.613h9.926c4.007,0,6.946,0.589,8.987,1.8c2.179,1.296,3.283,3.444,3.283,6.388
		c0,0.456-0.029,0.913-0.086,1.358c-0.061,0.473-0.195,1.006-0.401,1.584c-0.213,0.602-0.5,1.156-0.854,1.646
		c-0.356,0.495-0.846,0.978-1.456,1.432c0.95,0.509,1.744,1.174,2.374,1.992c1.071,1.393,1.614,3.112,1.614,5.112
		C162.731,371.793,161.633,374.14,159.467,375.75z M192.722,378.076H173.38v-30.613h19.396l-0.317,6.199h-11.786v5.383h11.25v6.199
		h-11.25v6.613h12.308L192.722,378.076z M221.653,378.076l-3.604-8.073c-1.112-2.36-1.71-3.573-2.029-4.187
		c-0.37-0.004-0.906-0.006-1.608-0.006l-3.434-0.03v12.296h-7.234v-30.691h11.605c1.468,0,2.773,0.068,3.88,0.202
		c1.128,0.14,2.22,0.396,3.245,0.765c1.092,0.395,1.997,0.941,2.689,1.627c0.695,0.688,1.248,1.583,1.643,2.663
		c0.384,1.052,0.578,2.294,0.578,3.692c0,3.776-1.548,6.438-4.606,7.932c0.577,0.874,1.221,2.048,1.948,3.546l4.95,10.265H221.653z
		 M264.407,378.076h-7.293v-12.734h-10.93v12.734h-7.293v-30.613h7.293v11.699h10.93v-11.699h7.293V378.076z M295.921,378.076
		h-19.342v-30.613h19.396l-0.317,6.199h-11.786v5.383h11.25v6.199h-11.25v6.613h12.309L295.921,378.076z M297.573,237.95
		c0,11.199-1.091,20.541-3.271,28.027c-2.182,7.488-6.299,17.062-12.354,22.727c-5.209,4.818-11.264,10.334-18.164,12.547
		c-6.901,2.213-14.975,4.32-24.219,4.32c-11.003,0-20.476-2.188-28.418-4.564c-7.943-2.375-14.421-8.055-19.434-13.035
		c-5.014-4.98-8.691-14.359-11.035-22.141c-2.344-7.779-3.516-17.072-3.516-27.881v-18.848c0-5.859,1.318-10.254,3.955-13.184
		s6.104-4.395,10.4-4.395c4.492,0,8.057,1.465,10.693,4.395s3.955,7.324,3.955,13.184v20.41c0,8.008,0.895,14.697,2.686,20.068
		c1.79,5.371,4.964,9.539,9.521,12.5c4.557,2.963,10.938,5.443,19.141,5.443c11.328,0,19.336-4.01,24.023-10.033
		c4.688-6.021,7.031-15.152,7.031-27.393v-60.996c0-5.924,1.302-10.335,3.906-13.232c2.604-2.896,6.087-4.346,10.449-4.346
		c4.361,0,7.894,1.449,10.596,4.346c2.701,2.897,4.053,7.309,4.053,13.232V237.95z M281.452,142.837
		c-9.456,0-17.123-7.666-17.123-17.121s7.667-17.121,17.123-17.121c9.455,0,17.121,7.666,17.121,17.121
		S290.907,142.837,281.452,142.837z M325.456,378.076l-2.832-8.086h-8.603l-2.852,8.086h-7.669l11.263-30.633h7.161l11.096,30.633
		H325.456z M363.484,374.081c-2.961,2.651-7.083,3.995-12.249,3.995h-9.77v-30.613h9.281c2.58,0,4.934,0.303,6.996,0.898
		c2.102,0.609,3.938,1.542,5.459,2.771c1.549,1.252,2.752,2.882,3.574,4.844c0.811,1.931,1.221,4.181,1.221,6.686
		C367.997,367.561,366.479,371.402,363.484,374.081z"/>
	<path fill="#FFFFFF" stroke="#FFFFFF" stroke-miterlimit="10" d="M358.259,355.854c-1.562-1.415-4.01-2.133-7.277-2.133h-2.223
		v18.117h2.789c2.978,0,5.249-0.765,6.752-2.274c1.505-1.509,2.268-3.791,2.268-6.784
		C360.567,359.574,359.791,357.244,358.259,355.854z"/>
	<path fill="#FFFFFF" stroke="#FFFFFF" stroke-miterlimit="10" d="M316.012,364.045h4.614c-1.083-3.472-1.799-5.773-2.273-7.303
		L316.012,364.045z"/>
</g>
</svg>
